{
    "programs": [

    ],
    "streams": [
        {
            "index": 0,
            "codec_name": "h264",
            "codec_long_name": "H.264 / AVC / MPEG-4 AVC / MPEG-4 part 10",
            "profile": "High",
            "codec_type": "video",
            "codec_time_base": "1001/48000",
            "codec_tag_string": "[0][0][0][0]",
            "codec_tag": "0x0000",
            "width": 1920,
            "height": 1038,
            "has_b_frames": 2,
            "sample_aspect_ratio": "1:1",
            "display_aspect_ratio": "320:173",
            "pix_fmt": "yuv420p",
            "level": 40,
            "color_range": "tv",
            "color_space": "bt709",
            "color_transfer": "bt709",
            "color_primaries": "bt709",
            "chroma_location": "left",
            "refs": 3,
            "is_avc": "1",
            "nal_length_size": "4",
            "r_frame_rate": "24000/1001",
            "avg_frame_rate": "24000/1001",
            "time_base": "1/1000",
            "start_pts": 0,
            "start_time": "0.000000",
            "bits_per_raw_sample": "8",
            "disposition": {
                "default": 1,
                "dub": 0,
                "original": 0,
                "comment": 0,
                "lyrics": 0,
                "karaoke": 0,
                "forced": 0,
                "hearing_impaired": 0,
                "visual_impaired": 0,
                "clean_effects": 0,
                "attached_pic": 0
            },
            "tags": {
                "language": "jpn",
                "title": "x264"
            }
        },
        {
            "index": 1,
            "codec_name": "dca",
            "codec_long_name": "DCA (DTS Coherent Acoustics)",
            "profile": "DTS",
            "codec_type": "audio",
            "codec_time_base": "1/48000",
            "codec_tag_string": "[0][0][0][0]",
            "codec_tag": "0x0000",
            "sample_fmt": "fltp",
            "sample_rate": "48000",
            "channels": 6,
            "channel_layout": "5.1(side)",
            "bits_per_sample": 0,
            "r_frame_rate": "0/0",
            "avg_frame_rate": "0/0",
            "time_base": "1/1000",
            "start_pts": 14,
            "start_time": "0.014000",
            "bit_rate": "1536000",
            "disposition": {
                "default": 1,
                "dub": 0,
                "original": 0,
                "comment": 0,
                "lyrics": 0,
                "karaoke": 0,
                "forced": 0,
                "hearing_impaired": 0,
                "visual_impaired": 0,
                "clean_effects": 0,
                "attached_pic": 0
            },
            "tags": {
                "language": "jpn",
                "title": "Japanese Audio"
            }
        },
        {
            "index": 2,
            "codec_name": "dca",
            "codec_long_name": "DCA (DTS Coherent Acoustics)",
            "profile": "DTS",
            "codec_type": "audio",
            "codec_time_base": "1/48000",
            "codec_tag_string": "[0][0][0][0]",
            "codec_tag": "0x0000",
            "sample_fmt": "fltp",
            "sample_rate": "48000",
            "channels": 6,
            "channel_layout": "5.1(side)",
            "bits_per_sample": 0,
            "r_frame_rate": "0/0",
            "avg_frame_rate": "0/0",
            "time_base": "1/1000",
            "start_pts": 14,
            "start_time": "0.014000",
            "bit_rate": "768000",
            "disposition": {
                "default": 0,
                "dub": 0,
                "original": 0,
                "comment": 0,
                "lyrics": 0,
                "karaoke": 0,
                "forced": 0,
                "hearing_impaired": 0,
                "visual_impaired": 0,
                "clean_effects": 0,
                "attached_pic": 0
            },
            "tags": {
                "language": "fre",
                "title": "French Audio"
            }
        },
        {
            "index": 3,
            "codec_name": "ass",
            "codec_long_name": "ASS (Advanced SubStation Alpha) subtitle",
            "codec_type": "subtitle",
            "codec_time_base": "1/1000",
            "codec_tag_string": "[0][0][0][0]",
            "codec_tag": "0x0000",
            "r_frame_rate": "0/0",
            "avg_frame_rate": "0/0",
            "time_base": "1/1000",
            "start_pts": 0,
            "start_time": "0.000000",
            "duration_ts": 5647642,
            "duration": "5647.642000",
            "disposition": {
                "default": 1,
                "dub": 0,
                "original": 0,
                "comment": 0,
                "lyrics": 0,
                "karaoke": 0,
                "forced": 0,
                "hearing_impaired": 0,
                "visual_impaired": 0,
                "clean_effects": 0,
                "attached_pic": 0
            },
            "tags": {
                "language": "eng",
                "title": "English Subs"
            }
        },
        {
            "index": 4,
            "codec_name": "ass",
            "codec_long_name": "ASS (Advanced SubStation Alpha) subtitle",
            "codec_type": "subtitle",
            "codec_time_base": "1/1000",
            "codec_tag_string": "[0][0][0][0]",
            "codec_tag": "0x0000",
            "r_frame_rate": "0/0",
            "avg_frame_rate": "0/0",
            "time_base": "1/1000",
            "start_pts": 0,
            "start_time": "0.000000",
            "duration_ts": 5647642,
            "duration": "5647.642000",
            "disposition": {
                "default": 0,
                "dub": 0,
                "original": 0,
                "comment": 0,
                "lyrics": 0,
                "karaoke": 0,
                "forced": 0,
                "hearing_impaired": 0,
                "visual_impaired": 0,
                "clean_effects": 0,
                "attached_pic": 0
            },
            "tags": {
                "language": "fre",
                "title": "Sous-Titres Français"
            }
        },
        {
            "index": 5,
            "codec_type": "attachment",
            "codec_time_base": "0/1",
            "codec_tag_string": "[0][0][0][0]",
            "codec_tag": "0x0000",
            "r_frame_rate": "0/0",
            "avg_frame_rate": "0/0",
            "time_base": "1/90000",
            "start_pts": 0,
            "start_time": "0.000000",
            "duration_ts": 508287780,
            "duration": "5647.642000",
            "disposition": {
                "default": 0,
                "dub": 0,
                "original": 0,
                "comment": 0,
                "lyrics": 0,
                "karaoke": 0,
                "forced": 0,
                "hearing_impaired": 0,
                "visual_impaired": 0,
                "clean_effects": 0,
                "attached_pic": 0
            },
            "tags": {
                "filename": "DFGKyks4-Arrietty.ttf",
                "mimetype": "application/x-truetype-font"
            }
        },
        {
            "index": 6,
            "codec_type": "attachment",
            "codec_time_base": "0/1",
            "codec_tag_string": "[0][0][0][0]",
            "codec_tag": "0x0000",
            "r_frame_rate": "0/0",
            "avg_frame_rate": "0/0",
            "time_base": "1/90000",
            "start_pts": 0,
            "start_time": "0.000000",
            "duration_ts": 508287780,
            "duration": "5647.642000",
            "disposition": {
                "default": 0,
                "dub": 0,
                "original": 0,
                "comment": 0,
                "lyrics": 0,
                "karaoke": 0,
                "forced": 0,
                "hearing_impaired": 0,
                "visual_impaired": 0,
                "clean_effects": 0,
                "attached_pic": 0
            },
            "tags": {
                "filename": "DFPGothUW5-Arrietty.ttf",
                "mimetype": "application/x-truetype-font"
            }
        },
        {
            "index": 7,
            "codec_type": "attachment",
            "codec_time_base": "0/1",
            "codec_tag_string": "[0][0][0][0]",
            "codec_tag": "0x0000",
            "r_frame_rate": "0/0",
            "avg_frame_rate": "0/0",
            "time_base": "1/90000",
            "start_pts": 0,
            "start_time": "0.000000",
            "duration_ts": 508287780,
            "duration": "5647.642000",
            "disposition": {
                "default": 0,
                "dub": 0,
                "original": 0,
                "comment": 0,
                "lyrics": 0,
                "karaoke": 0,
                "forced": 0,
                "hearing_impaired": 0,
                "visual_impaired": 0,
                "clean_effects": 0,
                "attached_pic": 0
            },
            "tags": {
                "filename": "FOT-MatisseMinoriProB-En.otf",
                "mimetype": "application/x-truetype-font"
            }
        },
        {
            "index": 8,
            "codec_type": "attachment",
            "codec_time_base": "0/1",
            "codec_tag_string": "[0][0][0][0]",
            "codec_tag": "0x0000",
            "r_frame_rate": "0/0",
            "avg_frame_rate": "0/0",
            "time_base": "1/90000",
            "start_pts": 0,
            "start_time": "0.000000",
            "duration_ts": 508287780,
            "duration": "5647.642000",
            "disposition": {
                "default": 0,
                "dub": 0,
                "original": 0,
                "comment": 0,
                "lyrics": 0,
                "karaoke": 0,
                "forced": 0,
                "hearing_impaired": 0,
                "visual_impaired": 0,
                "clean_effects": 0,
                "attached_pic": 0
            },
            "tags": {
                "filename": "LTe53507.ttf",
                "mimetype": "application/x-truetype-font"
            }
        },
        {
            "index": 9,
            "codec_type": "attachment",
            "codec_time_base": "0/1",
            "codec_tag_string": "[0][0][0][0]",
            "codec_tag": "0x0000",
            "r_frame_rate": "0/0",
            "avg_frame_rate": "0/0",
            "time_base": "1/90000",
            "start_pts": 0,
            "start_time": "0.000000",
            "duration_ts": 508287780,
            "duration": "5647.642000",
            "disposition": {
                "default": 0,
                "dub": 0,
                "original": 0,
                "comment": 0,
                "lyrics": 0,
                "karaoke": 0,
                "forced": 0,
                "hearing_impaired": 0,
                "visual_impaired": 0,
                "clean_effects": 0,
                "attached_pic": 0
            },
            "tags": {
                "filename": "Memo-Condensed Italic.ttf",
                "mimetype": "application/x-truetype-font"
            }
        },
        {
            "index": 10,
            "codec_type": "attachment",
            "codec_time_base": "0/1",
            "codec_tag_string": "[0][0][0][0]",
            "codec_tag": "0x0000",
            "r_frame_rate": "0/0",
            "avg_frame_rate": "0/0",
            "time_base": "1/90000",
            "start_pts": 0,
            "start_time": "0.000000",
            "duration_ts": 508287780,
            "duration": "5647.642000",
            "disposition": {
                "default": 0,
                "dub": 0,
                "original": 0,
                "comment": 0,
                "lyrics": 0,
                "karaoke": 0,
                "forced": 0,
                "hearing_impaired": 0,
                "visual_impaired": 0,
                "clean_effects": 0,
                "attached_pic": 0
            },
            "tags": {
                "filename": "Memo-Condensed Normal.ttf",
                "mimetype": "application/x-truetype-font"
            }
        },
        {
            "index": 11,
            "codec_type": "attachment",
            "codec_time_base": "0/1",
            "codec_tag_string": "[0][0][0][0]",
            "codec_tag": "0x0000",
            "r_frame_rate": "0/0",
            "avg_frame_rate": "0/0",
            "time_base": "1/90000",
            "start_pts": 0,
            "start_time": "0.000000",
            "duration_ts": 508287780,
            "duration": "5647.642000",
            "disposition": {
                "default": 0,
                "dub": 0,
                "original": 0,
                "comment": 0,
                "lyrics": 0,
                "karaoke": 0,
                "forced": 0,
                "hearing_impaired": 0,
                "visual_impaired": 0,
                "clean_effects": 0,
                "attached_pic": 0
            },
            "tags": {
                "filename": "PPETRIAL.otf",
                "mimetype": "application/x-truetype-font"
            }
        }
    ],
    "chapters": [
        {
            "id": -1745066329,
            "time_base": "1/1000000000",
            "start": 0,
            "start_time": "0.000000",
            "end": 564981000000,
            "end_time": "564.981000",
            "tags": {
                "title": "Chapter 1"
            }
        },
        {
            "id": 1909072313,
            "time_base": "1/1000000000",
            "start": 564981000000,
            "start_time": "564.981000",
            "end": 1065481000000,
            "end_time": "1065.481000",
            "tags": {
                "title": "Chapter 2"
            }
        },
        {
            "id": 1533823156,
            "time_base": "1/1000000000",
            "start": 1065481000000,
            "start_time": "1065.481000",
            "end": 1506880000000,
            "end_time": "1506.880000",
            "tags": {
                "title": "Chapter 3"
            }
        },
        {
            "id": 644420738,
            "time_base": "1/1000000000",
            "start": 1506880000000,
            "start_time": "1506.880000",
            "end": 2055095000000,
            "end_time": "2055.095000",
            "tags": {
                "title": "Chapter 4"
            }
        },
        {
            "id": -1273344353,
            "time_base": "1/1000000000",
            "start": 2055095000000,
            "start_time": "2055.095000",
            "end": 2479852000000,
            "end_time": "2479.852000",
            "tags": {
                "title": "Chapter 5"
            }
        },
        {
            "id": 604529325,
            "time_base": "1/1000000000",
            "start": 2479852000000,
            "start_time": "2479.852000",
            "end": 2791622000000,
            "end_time": "2791.622000",
            "tags": {
                "title": "Chapter 6"
            }
        },
        {
            "id": -39758462,
            "time_base": "1/1000000000",
            "start": 2791622000000,
            "start_time": "2791.622000",
            "end": 3167456000000,
            "end_time": "3167.456000",
            "tags": {
                "title": "Chapter 7"
            }
        },
        {
            "id": 794056863,
            "time_base": "1/1000000000",
            "start": 3167456000000,
            "start_time": "3167.456000",
            "end": 3755377000000,
            "end_time": "3755.377000",
            "tags": {
                "title": "Chapter 8"
            }
        },
        {
            "id": 1026056874,
            "time_base": "1/1000000000",
            "start": 3755377000000,
            "start_time": "3755.377000",
            "end": 4128249000000,
            "end_time": "4128.249000",
            "tags": {
                "title": "Chapter 9"
            }
        },
        {
            "id": 2080830109,
            "time_base": "1/1000000000",
            "start": 4128249000000,
            "start_time": "4128.249000",
            "end": 4635005000000,
            "end_time": "4635.005000",
            "tags": {
                "title": "Chapter 10"
            }
        },
        {
            "id": 505734567,
            "time_base": "1/1000000000",
            "start": 4635005000000,
            "start_time": "4635.005000",
            "end": 5054132000000,
            "end_time": "5054.132000",
            "tags": {
                "title": "Chapter 11"
            }
        },
        {
            "id": 668999338,
            "time_base": "1/1000000000",
            "start": 5054132000000,
            "start_time": "5054.132000",
            "end": 5646641000000,
            "end_time": "5646.641000",
            "tags": {
                "title": "Chapter 12"
            }
        },
        {
            "id": 208210319,
            "time_base": "1/1000000000",
            "start": 5646641000000,
            "start_time": "5646.641000",
            "end": 5647642000000,
            "end_time": "5647.642000",
            "tags": {
                "title": "Chapter 13"
            }
        }
    ],
    "format": {
        "filename": "/media/flaviopontes/Gigante/Filmes/Anime/Studio Ghibli/The_Borrowers_Arrietty_(2010)_[1080p,BluRay,x264,DTS]_-_THORA-UTW/The_Borrowers_Arrietty_(2010)_[1080p,BluRay,x264,DTS]_-_THORA-UTW.mkv",
        "nb_streams": 12,
        "nb_programs": 0,
        "format_name": "matroska,webm",
        "format_long_name": "Matroska / WebM",
        "start_time": "0.000000",
        "duration": "5647.642000",
        "size": "7542068328",
        "bit_rate": "10683493",
        "probe_score": 100,
        "tags": {
            "title": "Karigurashi no Arrietty BD",
            "encoder": "libebml v1.2.0 + libmatroska v1.1.0",
            "creation_time": "2011-06-26 01:56:28"
        }
    }
}
